<svg width="24" height="24" viewBox="0 0 24 24" fill="none" xmlns="http://www.w3.org/2000/svg">
<path d="M16.8998 11.9967C16.8617 10.9582 18.6023 9.17215 19.8838 7.86299C21.61 6.09351 23.102 4.56708 23.0548 2.93201C23.0409 2.58509 22.9556 2.24496 22.8043 1.93354C22.653 1.62211 22.4391 1.34629 22.1763 1.12386C19.9455 -0.757948 17.7129 1.40189 15.7436 3.77348C13.874 6.02538 11.7721 9.11323 9.55411 9.01196C8.42691 9.00091 7.05471 8.18338 5.69341 6.7085C4.58541 5.526 3.69971 4.14821 3.07961 2.64292C4.14511 3.18426 5.98381 4.61311 7.67001 6.42126C7.94121 6.71729 8.24581 6.97995 8.57761 7.20381C8.61751 7.22775 8.65741 7.25168 8.69921 7.27378C8.72571 7.28817 8.75291 7.30108 8.78081 7.31245C9.03021 7.43729 9.30731 7.49438 9.58491 7.47816C10.0496 7.4395 10.5052 7.15041 10.9463 6.6238C8.80631 3.83608 4.88381 0.21978 2.60411 0.0153958C2.31501 -0.0215166 2.02141 0.00815045 1.74521 0.102191C1.46901 0.196232 1.21721 0.352227 1.00861 0.558578C0.0611126 1.51789 0.736312 3.18979 0.957812 3.74034C2.19751 6.81898 5.78051 11.3817 9.49241 11.4222C12.7977 11.5806 15.4441 7.87404 17.5568 5.32937C18.4335 4.27431 20.0599 2.83258 20.5808 2.93569C20.5979 2.94064 20.6139 2.94876 20.628 2.95963C20.6479 2.97743 20.6667 2.9965 20.6843 3.01671C20.7496 3.56909 19.0924 5.27229 18.1994 6.18373C16.3843 8.02871 14.5147 9.94918 14.5311 11.9912C14.5147 14.0442 16.3843 15.9629 18.1994 17.8226C19.0924 18.734 20.7405 20.4335 20.6843 20.9896C20.6667 21.0098 20.6479 21.0289 20.628 21.0467C20.6139 21.0575 20.5979 21.0657 20.5808 21.0706C20.0599 21.1663 18.4335 19.7246 17.5568 18.6769C15.4441 16.1322 12.2767 12.4257 8.97141 12.5841C5.25961 12.6172 1.67661 17.1873 0.440513 20.2678C0.219013 20.8202 -0.456188 22.4902 0.491312 23.4496C0.700712 23.6543 0.952912 23.8086 1.22901 23.901C1.50521 23.9934 1.79841 24.0216 2.08681 23.9835C4.36651 23.7791 8.28901 20.1628 10.4362 17.3751C9.99511 16.8485 9.53961 16.5594 9.07491 16.5208C8.79721 16.5045 8.52021 16.5616 8.27081 16.6865L8.18911 16.7251C8.14741 16.7472 8.10741 16.7712 8.06751 16.7951C7.73581 17.019 7.43121 17.2816 7.16001 17.5777C5.46831 19.3785 3.62421 20.8128 2.55871 21.3486C3.17871 19.8433 4.06451 18.4656 5.17241 17.2831C6.53381 15.81 7.90601 14.9906 9.03311 14.9796C11.2512 14.882 13.874 17.9662 15.749 20.2199C17.7184 22.5897 19.951 24.7495 22.1817 22.8677C22.4445 22.6453 22.6585 22.3694 22.8098 22.058C22.9611 21.7466 23.0464 21.4065 23.0602 21.0596C23.1074 19.4245 21.6081 17.8981 19.8892 16.1304C18.6023 14.8194 16.8617 13.0334 16.8998 11.9967Z" fill="url(#paint0_linear_16_12)"/>
<defs>
<linearGradient id="paint0_linear_16_12" x1="0.387812" y1="1.17909" x2="22.2859" y2="22.7638" gradientUnits="userSpaceOnUse">
<stop stop-color="#FFED57"/>
<stop offset="0.13" stop-color="#FF5D64"/>
<stop offset="0.36" stop-color="#FF3254"/>
<stop offset="0.55" stop-color="#FF416A"/>
<stop offset="0.58" stop-color="#E54278"/>
<stop offset="0.69" stop-color="#8F43A7"/>
<stop offset="0.77" stop-color="#5A45C4"/>
<stop offset="0.81" stop-color="#4545CF"/>
</linearGradient>
</defs>
</svg>
